<svg xmlns="http://www.w3.org/2000/svg" xmlns:xlink="http://www.w3.org/1999/xlink" preserveAspectRatio="xMidYMid" width="76" height="54" viewBox="0 0 76 54">
  <defs>
    <style>

      .cls-2 {
        fill: #ffffff;
      }
    </style>
  </defs>
  <path d="M51.164,0.811 C50.129,-0.272 48.406,-0.272 47.335,0.811 C46.300,1.857 46.300,3.598 47.335,4.641 C47.335,4.641 66.751,24.259 66.751,24.259 C66.751,24.259 2.681,24.259 2.681,24.259 C1.187,24.262 -0.000,25.462 -0.000,26.971 C-0.000,28.480 1.187,29.718 2.681,29.718 C2.681,29.718 66.751,29.718 66.751,29.718 C66.751,29.718 47.335,49.300 47.335,49.300 C46.300,50.382 46.300,52.125 47.335,53.170 C48.406,54.252 50.132,54.252 51.164,53.170 C51.164,53.170 75.177,28.906 75.177,28.906 C76.248,27.860 76.248,26.119 75.177,25.076 C75.177,25.076 51.164,0.811 51.164,0.811 Z" id="path-1" class="cls-2" fill-rule="evenodd"/>
</svg>
