<svg xmlns="http://www.w3.org/2000/svg" xmlns:xlink="http://www.w3.org/1999/xlink" preserveAspectRatio="xMidYMid" width="76" height="54" viewBox="0 0 76 54">
  <defs>
    <style>

      .cls-2 {
        fill: #ffffff;
      }
    </style>
  </defs>
  <path d="M24.805,0.811 C25.840,-0.272 27.562,-0.272 28.634,0.811 C29.669,1.857 29.669,3.598 28.634,4.641 C28.634,4.641 9.218,24.259 9.218,24.259 C9.218,24.259 73.288,24.259 73.288,24.259 C74.782,24.262 75.969,25.462 75.969,26.971 C75.969,28.480 74.782,29.718 73.288,29.718 C73.288,29.718 9.218,29.718 9.218,29.718 C9.218,29.718 28.634,49.300 28.634,49.300 C29.669,50.382 29.669,52.125 28.634,53.170 C27.562,54.252 25.837,54.252 24.805,53.170 C24.805,53.170 0.792,28.906 0.792,28.906 C-0.279,27.860 -0.279,26.119 0.792,25.076 C0.792,25.076 24.805,0.811 24.805,0.811 Z" id="path-1" class="cls-2" fill-rule="evenodd"/>
</svg>
