<svg xmlns="http://www.w3.org/2000/svg" xmlns:xlink="http://www.w3.org/1999/xlink" preserveAspectRatio="xMidYMid" width="20" height="22" viewBox="0 0 20 22">
  <defs>
    <style>

      .cls-2 {
        fill: #1d1d1d;
        opacity: 0.74;
      }
    </style>
  </defs>
  <path d="M15.611,15.092 C15.611,15.092 19.380,19.680 19.380,19.680 C19.380,19.680 17.063,21.585 17.063,21.585 C17.063,21.585 13.243,16.936 13.243,16.936 C11.978,17.614 10.535,18.000 9.000,18.000 C4.029,18.000 -0.000,13.971 -0.000,9.000 C-0.000,4.029 4.029,0.000 9.000,0.000 C13.970,0.000 18.000,4.029 18.000,9.000 C18.000,11.353 17.089,13.489 15.611,15.092 ZM9.000,3.000 C5.686,3.000 3.000,5.686 3.000,9.000 C3.000,12.314 5.686,15.000 9.000,15.000 C12.314,15.000 15.000,12.314 15.000,9.000 C15.000,5.686 12.314,3.000 9.000,3.000 Z" id="path-1" class="cls-2" fill-rule="evenodd"/>
</svg>
