<svg xmlns="http://www.w3.org/2000/svg" xmlns:xlink="http://www.w3.org/1999/xlink" preserveAspectRatio="xMidYMid" width="20" height="25" viewBox="0 0 20 25">
  <defs>
    <style>

      .cls-2 {
        fill: #515050;
      }
    </style>
  </defs>
  <path d="M20.000,25.000 C20.000,25.000 -0.000,25.000 -0.000,25.000 C-0.000,25.000 -0.000,7.000 -0.000,7.000 C-0.000,7.000 3.000,7.000 3.000,7.000 C3.000,7.000 3.000,7.000 3.000,7.000 C3.000,7.000 3.000,6.000 3.000,6.000 C3.000,6.000 3.000,6.000 3.000,6.000 C3.000,4.343 5.301,0.000 10.000,0.000 C13.866,0.000 17.000,4.343 17.000,6.000 C17.000,6.000 17.000,6.000 17.000,6.000 C17.000,6.000 17.000,7.000 17.000,7.000 C17.000,7.000 20.000,7.000 20.000,7.000 C20.000,7.000 20.000,25.000 20.000,25.000 ZM3.000,10.000 C3.000,10.000 3.000,22.000 3.000,22.000 C3.000,22.000 17.000,22.000 17.000,22.000 C17.000,22.000 17.000,10.000 17.000,10.000 C17.000,10.000 3.000,10.000 3.000,10.000 ZM10.000,3.000 C7.091,3.028 6.223,4.654 6.000,6.046 C6.000,6.046 6.000,7.000 6.000,7.000 C6.000,7.000 6.000,8.000 6.000,8.000 C6.000,8.000 6.000,8.000 6.000,8.000 C6.000,8.276 7.515,9.000 10.000,9.000 C12.485,9.000 13.901,8.258 14.000,8.000 C14.000,8.000 14.000,8.000 14.000,8.000 C14.000,8.000 14.000,8.000 14.000,8.000 C14.000,8.000 14.000,7.000 14.000,7.000 C14.000,7.000 14.000,7.000 14.000,7.000 C14.000,7.000 14.000,6.000 14.000,6.000 C14.000,6.000 14.041,6.000 14.041,6.000 C13.805,4.595 12.900,2.973 10.000,3.000 Z" id="path-1" class="cls-2" fill-rule="evenodd"/>
</svg>
